<svg xmlns="http://www.w3.org/2000/svg" version="1.1" xmlns:xlink="http://www.w3.org/1999/xlink"
  viewBox="0 0 1422 800" style="overflow: hidden; display: block;" width="900" height="600">
  <defs></defs>
  <g id="two-0" transform="matrix(1 0 0 1 0 0)" opacity="1"></g>
  <path
    d="M 137.24539791493808 485.4704553674714 Q 137.24539791493808 485.4704553674714 139.81938576526866 484.8737620652287 142.39337361559924 484.27706876298595 145.03683252755854 483.41230499068286 147.68029143951787 482.5475412183798 150.75633910453124 481.54053136469634 153.8323867695446 480.53352151101285 157.68945857003987 479.156594999638 161.54653037053515 477.77966848826316 165.46117605821095 476.5480268762397 169.37582174588675 475.31638526421625 173.23818105558098 473.85105578217224 177.10054036527524 472.3857263001282 182.95152661413096 470.46861669105476 188.80251286298667 468.5515070819813 191.89945317594842 467.4291083518144 194.99639348891017 466.3067096216475 198.2532049580092 465.18401861190364 201.51001642710824 464.06132760215974 206.74007150463342 462.30335792083497 211.97012658215857 460.54538823951026 217.7065925184736 458.52113266445645 223.44305845478863 456.4968770894026 227.47730131708903 454.9985020160014 231.5115441793894 453.5001269426002 234.19875475713607 452.53917304561367 236.88596533488274 451.57821914862717 239.33730116056245 450.84071195726756 241.78863698624215 450.103204765908 244.72768080322015 449.15730497183085 247.66672462019818 448.2114051777537 249.8051381845203 447.19021719616677 251.94355174884242 446.16902921457984 253.23715574281164 445.6209957242859 254.53075973678085 445.07296223399186 256.38120964706286 444.5070548529386 258.23165955734487 443.9411474718853 259.38344118847 442.82774665539665 260.53522281959505 441.714345838908 261.04291556047866 440.5057872848681 261.5506083013623 439.29722873082824 262.51671969959546 438.1971311867586 263.48283109782864 437.097033642689 263.91668873535616 435.8029161313873 264.3505463728836 434.50879862008554 265.53692477405957 433.39686721926284 266.7233031752355 432.2849358184402 267.78324938598354 431.2067830425069 268.84319559673156 430.12863026657357 270.07620704954036 428.19009489415424 271.3092185023492 426.2515595217349 272.5086702702306 424.0383987685905 273.70812203811204 421.82523801544613 274.2823924990243 419.98743500967964 274.85666295993656 418.14963200391315 275.3821554171057 416.31854221069847 275.90764787427486 414.4874524174838 276.4577264764803 413.19840146397604 277.00780507868575 411.9093505104683 277.60162794928806 410.08761992684407 278.1954508198904 408.26588934321984 278.3950885258506 406.99496344682757 278.59472623181074 405.72403755043524 279.6270998035469 404.5819189250459 280.6594733752831 403.4398002996566 281.87313819554527 403.1210218063189 283.08680301580745 402.80224331298115 282.1145674341242 403.7244978756375 281.1423318524409 404.64675243829384 281.91504442590974 403.4972341231332 282.6877569993785 402.3477158079725 283.904560088515 401.09706471063055 285.12136317765146 399.8464136132885 287.44291553413944 398.00711560315347 289.76446789062743 396.16781759301847 291.00227255727316 395.16517435054095 292.24007722391883 394.1625311080635 294.2141937863853 392.80320547815353 296.1883103488517 391.44387984824357 297.25106290250204 390.54245002965706 298.3138154561524 389.64102021107055 299.3718279185034 387.97815637338294 300.42984038085444 386.31529253569533 301.2573105295045 384.9974414480114 302.0847806781546 383.67959036032744 302.0246134812894 382.1365774956826 301.9644462844242 380.5935646310378 302.3636815034899 379.35163263114885 302.7629167225556 378.1097006312599 303.6146141055358 376.65836690585115 304.46631148851606 375.2070331804424 306.17039010969575 374.33822095650453 307.8744687308754 373.4694087325666 309.3026554891733 372.7137734677117 310.7308422474711 371.95813820285673 312.4296881384914 370.854248508812 314.1285340295116 369.75035881476737 315.41881055977444 369.17092506857546 316.70908709003726 368.59149132238355 318.443047883517 367.69128940968784 320.1770086769968 366.79108749699213 322.12582988366614 365.8038554003938 324.07465109033546 364.8166233037955 325.88985514719104 363.8109832554476 327.7050592040467 362.80534320709967 329.25110447396696 361.5027382811759 330.7971497438872 360.2001333552521 331.912315566243 359.6215610024136 333.0274813885989 359.04298864957514 334.8168887111153 358.051071881433 336.60629603363174 357.05915511329084 335.77128993655856 358.01563280143273 334.9362838394854 358.97211048957456 335.52302831137814 357.1458534467919 336.1097727832709 355.31959640400913 336.06135400959204 353.99523141985446 336.01293523591323 352.6708664356998 336.0030846199634 351.40994466161067 335.9932340040135 350.1490228875216 335.98488583818175 348.6506570881791 335.97653767234993 347.15229128883664 334.92284060930365 345.194501155329 333.86914354625736 343.23671102182146 335.1482470136444 343.664737477254 336.4273504810314 344.0927639326865 335.045096193599 343.2297782938473 333.66284190616665 342.366792655008 333.1646113456985 341.47454117108043 332.6663807852304 340.5822896871529 332.6436869538684 340.17332819836895 332.62099312250643 339.7643667095849 332.6968327192152 339.3618584924497 332.7726723159239 338.9593502753145 332.9426375397793 338.5866891263197 333.11260276363464 338.214027977325 333.36681522784045 337.89287297995963 333.62102769204625 337.5717179825943 333.9447125562387 337.3207346803947 334.26839742043114 337.06975137819506 334.6427421050951 336.9035269324774 335.0170867897591 336.73730248675975 335.4203343642334 336.6654978701191 335.82358193870766 336.59369325347853 336.23229563501735 336.6204817536079 336.64100933132704 336.6472702537373 337.0314346902393 336.7710949217505 337.4218600491515 336.8949195897637 337.7713055304622 337.1085837301378 338.12075101177294 337.32224787051194 338.40890682768975 337.6133333133696 338.6970626436066 337.90441875622724 338.90718116456947 338.2560076019529 339.1172996855324 338.6075964476785 339.2371688132306 338.9992543360392 339.3570379409288 339.3909122243999 337.0711290622793 338.5527563158251 334.78522018362975 337.71460040725026 334.32458776476335 336.5041552193401 333.86395534589695 335.29371003142995 334.474404909304 334.06292516454437 335.08485447271096 332.83214029765884 335.51318405960717 331.59441408970224 335.9415136465034 330.3566878817456 337.3796077300665 328.5977335227061 338.8177018136296 326.8387791636666 340.41952673214587 325.20030688185557 342.0213516506621 323.5618346000445 342.89669042696005 321.619712376326 343.77202920325806 319.67759015260754 345.42423574077856 318.1440458821018 347.07644227829906 316.6105016115961 348.1909251038401 315.83039718896487 349.3054079293811 315.05029276633365 350.29367095778196 313.5510453291904 351.2819339861828 312.0517978920471 352.63775444966484 310.6869014503912 353.99357491314686 309.3220050087353 355.08864752946795 308.2520939511362 356.183720145789 307.1821828935371 357.5095490148818 306.86236205357835 358.8353778839747 306.5425412136196 360.7724328118237 307.1165379894606 362.7094877396728 307.6905347653016 364.3051769570425 308.7600133303855 365.9008661744121 309.82949189546946 367.3565727536455 311.668006583865 368.81227933287886 313.5065212722606 369.41402109341624 315.22605669719155 370.0157628539536 316.9455921221225 370.7412248772106 318.6459915132094 371.46668690046755 320.3463909042963 372.4101866976773 322.18354966302945 373.35368649488714 324.02070842176266 374.36318159299697 324.96532276894914 375.37267669110673 325.90993711613567 376.0694159476625 327.77182944973185 376.7661552042183 329.633721783328 377.5155802812652 330.8672921164049 378.2650053583121 332.1008624494818 379.35311546162075 333.19101437994004 380.4412255649293 334.28116631039836 381.8265559704115 334.59498218016273 383.2118863758937 334.9087980499271 383.97317903914256 336.06233685549 384.73447170239143 337.21587566105285 385.9614235777718 338.1630840078262 387.1883754531522 339.1102923545996 388.4516453818584 339.73638999631885 389.7149153105645 340.36248763803803 391.0508596434056 340.73705357219876 392.3868039762467 341.11161950635955 393.84530479679904 341.7983137908637 395.3038056173513 342.48500807536783 396.2246822273089 343.450721429596 397.14555883726655 344.4164347838242 397.61026675667244 345.88473909682887 398.0749746760783 347.35304340983356 399.0266927275213 349.35391736591635 399.97841077896436 351.35479132199913 400.5742966274532 352.52604270744393 401.170182475942 353.6972940928888 401.9114923633232 354.87000520433884 402.6528022507044 356.0427163157889 403.1226817019512 357.88239405704473 403.592561153198 359.7220717983006 404.39289861130885 361.4097733630467 405.1932360694197 363.09747492779286 405.598439204753 364.4822984573108 406.0036423400863 365.8671219868287 404.6584870101368 364.79675910137877 403.3133316801873 363.72639621592884 405.0270077636276 364.88057775730135 406.7406838470678 366.0347592986739 407.35016338782225 367.1569494765748 407.95964292857667 368.2791396544757 409.5845288864067 368.79611481923484 411.2094148442368 369.3130899839939 413.16453547652503 369.3499491207958 415.1196561088133 369.3868082575977 416.6676636635684 368.41853254149237 418.2156712183236 367.4502568253871 419.31838202134725 366.7795096530466 420.42109282437093 366.10876248070605 421.45928475113317 364.99838926010574 422.49747667789546 363.88801603950543 421.77132638837134 362.65261610944924 421.04517609884715 361.4172161793931 420.97997268071424 359.880880347349 420.9147692625814 358.34454451530485 421.85998410073046 356.9738464167371 422.8051989388795 355.60314831816936 424.00577935075665 354.5917798015322 425.2063597626338 353.5804112848951 425.9882114251678 352.57928417273865 426.77006308770177 351.5781570605822 428.12604066441907 350.2178027838203 429.4820182411363 348.8574485070584 430.8480090417605 347.4627034249515 432.21399984238474 346.0679583428446 432.23074216691964 343.8561053192918 432.24748449145454 341.64425229573914 433.9570238878597 340.4641352988002 435.66656328426484 339.28401830186135 437.22152561340533 338.5198884370353 438.7764879425458 337.75575857220923 441.20649279359225 338.18510958706884 443.6364976446387 338.6144606019285 445.0920168330236 339.1748454230931 446.54753602140846 339.7352302442576 448.7761476766743 340.0106562227762 451.00475933194014 340.28608220129485 453.16945883379094 340.4797298919523 455.3341583356417 340.67337758260976 456.5948904437757 340.69050053949223 457.8556225519097 340.7076234963747 459.6508223684953 340.77411398844595 461.44602218508095 340.8406044805172 463.1243769443204 340.36734363267817 464.8027317035598 339.89408278483916 466.59251691712353 339.15550415375395 468.38230213068726 338.41692552266875 469.7317388030277 338.07509085284437 471.0811754753682 337.73325618301993 472.9783084629054 337.6685738966213 474.8754414504425 337.60389161022266 476.27236922843764 337.5692865565123 477.66929700643277 337.5346815028019 479.5927108816532 337.59479944267684 481.51612475687364 337.6549173825518 482.77254688553853 337.99737765168493 484.0289690142035 338.339837920818 486.0681528256922 337.6221316786052 488.1073366371809 336.90442543639233 490.75973547860013 336.2552602156944 493.4121343200194 335.60609499499657 495.7736532473074 335.0639001257824 498.1351721745954 334.5217052565682 500.87726962994884 334.31713274795607 503.6193670853023 334.11256023934396 505.232583751922 333.6779958890861 506.84580041854167 333.2434315388282 508.5044325202802 332.72988637185824 510.16306462201874 332.2163412048883 511.9859321991426 331.9500211801285 513.8087997762665 331.6837011553686 515.6824774752171 331.4569479735795 517.5561551741677 331.2301947917903 519.1227450000433 331.5319459899283 520.689334825919 331.83369718806625 523.2020728776879 332.3103458655167 525.7148109294567 332.78699454296714 528.0921332855671 332.9479265525965 530.4694556416774 333.1088585622259 532.0826903166931 333.0993725769405 533.6959249917088 333.089886591655 535.0471621112954 333.0501180315002 536.398399230882 333.01034947134536 537.5438169809663 332.37041297798066 538.6892347310508 331.730476484616 540.0255247568539 331.37393386478465 541.361814782657 331.0173912449533 543.0043506578224 330.85090299987274 544.646886532988 330.6844147547922 547.021171531283 330.6566491224028 549.3954565295779 330.62888349001344 551.654243444586 329.91315573554357 553.913030359594 329.19742798107364 555.7327182283238 328.8220241937539 557.5524060970537 328.4466204064342 559.5522774668643 327.3906653630174 561.5521488366751 326.33471031960056 563.0908127522966 326.2292295804957 564.6294766679183 326.12374884139086 566.5173492456204 326.1690920519766 568.4052218233226 326.21443526256235 570.6575670009602 326.63764764659436 572.9099121785979 327.0608600306263 575.395403860906 327.67062940946596 577.880895543214 328.28039878830555 579.2140700572653 328.4428387335894 580.5472445713166 328.60527867887316 583.3091631127072 328.72136626540015 586.0710816540978 328.83745385192714 587.5482267850175 328.8382130079617 589.0253719159371 328.83897216399635 590.609772215609 328.84227286921475 592.194172515281 328.8455735744332 594.3350771732948 328.62316902311886 596.4759818313088 328.40076447180456 597.792896325712 328.22670863970643 599.1098108201153 328.0526528076083 600.476076412456 327.685649871594 601.8423420047968 327.3186469355797 602.9615084737927 326.4396884774665 604.0806749427887 325.56073001935334 605.6024243748404 325.00858917409784 607.124173806892 324.4564483288423 609.459381120123 324.3065290897302 611.794588433354 324.15660985061805 613.2451682058047 324.15090610773757 614.6957479782553 324.1452023648571 617.4390520791344 323.984182243172 620.1823561800135 323.8231621214869 622.7420479265429 323.79344715961605 625.3017396730722 323.7637321977452 627.9959863034237 323.78695145234667 630.6902329337753 323.8101707069481 632.7951155814762 323.7890252461985 634.8999982291773 323.7678797854489 636.6106433489915 324.0511300756718 638.3212884688057 324.3343803658947 640.1390926665322 324.4458724138752 641.9568968642587 324.5573644618557 644.1846168774523 324.5372601990695 646.4123368906457 324.51715593628336 647.8383077506084 324.500476785061 649.264278610571 324.48379763383855 651.9720990401903 325.1668157949228 654.6799194698096 325.84983395600705 656.7975179724785 326.8413867162049 658.9151164751474 327.83293947640277 661.6928524652686 328.9354062635102 664.4705884553898 330.0378730506176 668.1707795510389 331.1647933024814 671.870970646688 332.2917135543453 674.3484267113832 332.7813298723489 676.8258827760785 333.27094619035256 679.1255318874948 333.4756578384779 681.4251809989113 333.6803694866033 683.6776911712111 333.7638618963259 685.930201343511 333.8473543060486 687.3762710419351 333.51809745154856 688.822340740359 333.18884059704857 690.2653490386131 332.4550971341281 691.7083573368673 331.7213536712076 693.0153912470091 330.76967718802683 694.3224251571509 329.81800070484604 695.7177979594775 329.17844915088926 697.1131707618041 328.53889759693243 699.4073047632876 328.36147863989777 701.7014387647712 328.1840596828631 704.1113932163464 327.8971132315079 706.5213476679218 327.6101667801527 708.8203279037457 327.18039410658093 711.1193081395697 326.7506214330092 715.2755020630041 325.64811330951943 719.4316959864383 324.54560518602966 721.4651319198352 323.757527045365 723.4985678532322 322.9694489047003 725.360781964192 322.26999398930553 727.2229960751519 321.57053907391077 729.3854577244374 320.6222699749515 731.5479193737228 319.67400087599225 733.0491882107968 319.8496842421513 734.5504570478709 320.0253676083104 736.1126436804293 320.76780519400324 737.6748303129878 321.5102427796961 739.1546558196798 322.4560984451314 740.6344813263718 323.40195411056663 742.0763085024571 324.04798108834865 743.5181356785423 324.69400806613066 744.8542093840626 325.30895942600245 746.190283089583 325.9239107858742 747.400741190255 326.4913949475105 748.611199290927 327.0588791091468 750.8247877998223 327.2755653270092 753.0383763087176 327.4922515448715 754.6750884210646 326.9609656931797 756.3118005334118 326.42967984148777 757.7207157925843 326.0964416738093 759.1296310517569 325.76320350613076 761.5217500859372 325.69540136551353 763.9138691201176 325.6275992248963 766.1653466507087 325.649099782647 768.4168241812997 325.6706003403977 770.3306857278944 325.6667781380904 772.244547274489 325.6629559357832 774.3412454826263 325.6928589005147 776.4379436907635 325.7227618652461 779.1534631697447 325.49756289934555 781.8689826487258 325.272363933445 783.7376141257544 325.11440276290745 785.6062456027829 324.9564415923699 787.0552070370318 324.8530945674718 788.5041684712807 324.74974754257374 790.9775746924076 324.6270501766741 793.4509809135346 324.5043528107745 797.249164657818 324.91369486709675 801.0473484021015 325.32303692341895 804.4735975335017 325.53174960545016 807.8998466649018 325.74046228748136 811.5985031833059 325.85655619308415 815.29715970171 325.9726500986869 817.8337948938433 326.0415820455411 820.3704300859767 326.1105139923952 822.7284706564371 326.13405036407255 825.0865112268974 326.1575867357498 826.4101036032944 326.09189635020994 827.7336959796913 326.02620596467005 828.9914501721832 325.93356519763194 830.249204364675 325.8409244305938 832.145239474675 325.02923772369263 834.0412745846751 324.2175510167914 835.5120359058312 323.4358035353554 836.9827972269874 322.6540560539193 840.1378231846015 322.4255016267757 843.2928491422157 322.1969471996322 846.2168270988328 322.6363097694711 849.14080505545 323.07567233931 850.9407084001779 323.20300983137463 852.7406117449058 323.3303473234393 854.4448151974586 323.3736635355668 856.1490186500115 323.41697974769426 858.5978322777378 323.3794224416599 861.0466459054641 323.34186513562554 863.449928644807 323.2871697247068 865.8532113841497 323.2324743137881 867.6300152858748 323.25328350966356 869.4068191875998 323.27409270553903 870.6781869430266 323.2026828470713 871.9495546984534 323.1312729886035 870.8688776732846 324.1986277239931 869.7882006481158 325.2659824593827 870.7017764967118 323.775086302496 871.6153523453078 322.2841901456092 872.7886914684998 321.64320546626055 873.9620305916918 321.0022207869119 875.557613431229 319.83683777078073 877.1531962707662 318.6714547546496 878.5446538470435 317.9304735447579 879.9361114233209 317.18949233486626 881.8742270738919 316.06579166353606 883.8123427244631 314.9420909922059 885.4814988741402 314.15573752182604 887.1506550238174 313.3693840514462 888.4527103412383 312.967205551831 889.7547656586594 312.5650270522158 891.5007643639718 312.49632667835067 893.2467630692843 312.42762630448556 894.9768383369384 312.40567974748376 896.7069136045925 312.38373319048196 897.9171247327191 313.03020865490157 899.1273358608457 313.6766841193212 899.9049226533512 315.2794882564861 900.6825094458566 316.882292393651 900.3010469766116 319.54487223145213 899.9195845073667 322.2074520692532 899.7481770446724 323.8755874466998 899.576769581978 325.54372282414647 899.559731274084 326.9860346643679 899.5426929661901 328.4283465045893 899.0055690703218 330.122999845978 898.4684451744534 331.81765318736666 897.9827399504159 333.5023047011282 897.4970347263783 335.1869562148897 896.2045385628942 334.98059766039927 894.9120423994101 334.77423910590886 893.6860298336785 335.2691737378823 892.460017267947 335.76410836985565 892.4255989732433 334.0672524065029 892.3911806785396 332.37039644315024 892.3689697627674 330.86486805353763 892.346758846995 329.35933966392497 892.852996901426 327.94535060032666 893.3592349558568 326.53136153672835 893.3601123387491 325.11465189627 893.3609897216415 323.69794225581165 893.3402203734934 322.43472865876834 893.3194510253453 321.171515061725 893.3178866023147 321.1090414773634 893.316322179284 321.0465678930018 893.3633322760473 320.6594253472161 893.4103423728106 320.2722828014304 893.5486385220572 319.90764123076315 893.6869346713039 319.54299966009586 893.9084790943419 319.22205204976683 894.13002351738 318.9011044394378 894.4219400419331 318.642504279639 894.7138565664862 318.3839041198402 895.0591789904319 318.20268126400947 895.4045014143775 318.0214584081787 895.7831595822109 317.92814553721155 896.1618177500444 317.8348326662444 896.5518040312601 317.8348531285858 896.9417903124757 317.83487359092715 897.3204386860859 317.92822619730475 897.6990870596961 318.0215788036824 898.044390464436 318.2028378962275 898.3896938691757 318.38409698877257 898.6815832549376 318.64272778051 898.9734726406995 318.9013585722474 899.1949833826685 319.22232942940957 899.4164941246376 319.54330028657176 899.554752008083 319.9079563678598 899.6930098915285 320.2726124491478 899.7399793617685 320.65975992598385 899.7869488320084 321.0469074028199 900.1104335574726 322.3599730930867 900.4339182829366 323.6730387833535 902.1726289338384 325.5447844609363 903.9113395847402 327.4165301385191 905.9844590849168 328.1361031355733 908.0575785850933 328.85567613262754 908.773116198519 331.65850054950346 909.4886538119447 334.4613249663794 908.9055844306233 336.2572788001724 908.3225150493021 338.0532326339654 909.0154255340356 339.7162396371757 909.7083360187689 341.379246640386 909.7501535806061 342.74809587548526 909.7919711424433 344.11694511058454 909.7208868094876 345.4854810678844 909.649802476532 346.8540170251842 909.0395236940967 348.0354554891751 908.4292449116614 349.216893953166 908.1655363008804 347.5941363579989 907.9018276900995 345.9713787628318 909.251561552689 347.67886984130143 910.6012954152786 349.38636091977105 911.2738702664869 351.3357548662202 911.9464451176954 353.2851488126693 910.4501114143706 352.7873246855041 908.9537777110457 352.28950055833883 910.1181636536085 352.845554415105 911.2825495961713 353.4016082718712 912.2335414154973 354.2587432923002 913.1845332348232 355.11587831272914 914.1157347586402 356.1722113422327 915.0469362824571 357.2285443717362 914.0463722239384 356.3660583257586 913.0458081654198 355.50357227978105 914.4358302480277 355.5223477264369 915.8258523306358 355.5411231730928 917.1663870660088 356.3659901587174 918.506921801382 357.1908571443421 919.1527794314964 358.9598189940376 919.7986370616107 360.7287808437331 919.1538169283746 362.1004051390399 918.5089967951384 363.47202943434667 916.8390575456763 364.77726164853937 915.1691182962143 366.082493862732 914.8780406901428 366.2136624072356 914.5869630840713 366.34483095173914 914.2034279721079 366.45741419797235 913.8198928601446 366.56999744420557 913.420559512326 366.5875201940234 913.0212261645075 366.6050429438412 912.6293038537716 366.5264867742009 912.2373815430357 366.4479306045606 911.8756488124967 366.27786120373264 911.5139160819577 366.1077918029047 911.2033968549106 365.85609361245594 910.8928776278635 365.60439542200714 910.6516192963738 365.2856971525923 910.4103609648843 364.9669988831775 910.2523854745139 364.59982329318905 910.0944099841433 364.23264770320066 910.0288988778148 363.8383350551804 909.9633877714863 363.4440224071601 909.9941485577775 363.04549017073765 910.0249093440688 362.6469579343152 910.1501542046352 362.26736882179637 910.2753990652017 361.88777970927754 910.4878487628627 361.54919545771685 910.7002984605236 361.21061120615616 910.9876054088692 360.9327103481627 911.2749123572147 360.65480949016916 911.6203782629079 360.45374363666656 911.965844168601 360.2526777831639 914.7256417843109 359.75643657236685 917.4854394000208 359.26019536156986 918.7777546950235 359.1726150564426 920.0700699900261 359.0850347513154 921.8958226091372 359.7659470846656 923.7215752282483 360.4468594180158 924.9979902867797 361.26379363170565 926.2744053453112 362.0807278453955 927.2342924919801 362.90554239737753 928.194179638649 363.7303569493596 929.8402525956633 363.55753065652084 931.4863255526776 363.3847043636821 933.5843466196216 364.4299883806351 935.6823676865656 365.47527239758807 936.9267755785824 364.963491324609 938.1711834705991 364.45171025162995 939.9227423088071 365.73881525123824 941.6743011470152 367.0259202508465 943.3909107894658 367.6275727255395 945.1075204319164 368.22922520023246 945.7101301231401 369.3789317009928 946.3127398143636 370.52863820175315 947.7146548001257 371.32422375212644 949.1165697858878 372.11980930249973 949.569830751246 373.40399559436617 950.0230917166042 374.68818188623266 950.6253354644816 375.6105897560558 951.2275792123589 376.532997625879 951.4071774736196 376.89579160313906 951.5867757348805 377.2585855803991 951.6743298751553 377.65381877473476 951.76188401543 378.04905196907043 951.7523053839725 378.453753408657 951.7427267525148 378.8584548482436 951.6365720598352 379.24910326639747 951.5304173671556 379.63975168455136 951.33385632898 379.9936425768549 951.1372952908044 380.34753346915846 950.8617520439072 380.6440986803235 950.5862087970099 380.9406638914886 950.247697927847 381.1626670375082 949.909187058684 381.3846701835277 949.5273828348759 381.5192084311244 949.1455786110679 381.65374667872106 948.7426715120414 381.69300065862325 948.339764413015 381.73225463852543 947.9391714182962 381.6739429075769 947.5385784235773 381.6156311766283 947.1635820168408 381.4631428153715 946.7885856101044 381.31065445411474 946.460980600129 381.0728520932706 946.1333755901535 380.83504973242646 945.8722023955113 380.5257544563803 945.6110292008692 380.21645918033414 947.9515286994614 380.7144918240737 950.2920281980536 381.2125244678133 948.5902511919096 382.19059948403566 946.8884741857657 383.168674500258 946.7934487477137 384.65026878560013 946.6984233096617 386.13186307094225 945.0783738773823 385.3140727550225 943.4583244451028 384.49628243910274 945.1608708543322 385.0473194286064 946.8634172635615 385.59835641811003 948.0156365860948 386.22433988534476 949.1678559086283 386.85032335257944 950.0641618425836 388.3518649521708 950.9604677765391 389.8534065517621 951.5133505448209 391.0032499185844 952.0662333131027 392.1530932854067 953.0917936841136 393.0656072618766 954.1173540551245 393.97812123834655 953.0833922490708 393.095397555679 952.0494304430171 392.2126738730115 953.3153161718651 392.23437437545704 954.581201900713 392.2560748779025 955.9809376068858 392.40797031463325 957.3806733130585 392.559865751364 958.583389943176 393.02950182864157 959.7861065732935 393.49913790591916 961.0969327640312 394.0688009752477 962.4077589547687 394.63846404457627 963.8254959672373 394.6307952882064 965.2432329797059 394.6231265318365 966.9675201610733 395.06488392625175 968.6918073424406 395.50664132066703 970.5627435129485 396.10009772803653 972.4336796834564 396.6935541354061 973.9421192569978 396.95112297191025 975.4505588305392 397.2086918084144 976.8691088709401 398.6011386796547 978.2876589113409 399.993585550895 980.1007895792885 399.1384781230224 981.9139202472361 398.2833706951498 984.1560888961352 398.3699283531912 986.3982575450343 398.4564860112325 988.1215013585228 398.5237870352203 989.8447451720112 398.5910880592081 991.7401934317579 398.01928868896516 993.6356416915046 397.4474893187222 994.9466448521855 397.35199277772006 996.2576480128664 397.25649623671796 997.6286441786532 397.2334146928981 998.99964034444 397.2103331490783 1000.1776878228691 396.66767414550975 1001.3557353012981 396.1250151419412 1002.7013123604547 395.8662738224633 1004.0468894196114 395.60753250298546 1005.8288335425923 395.4905458784144 1007.6107776655732 395.3735592538433 1010.189890917957 394.63031772701663 1012.7690041703406 393.88707620019 1014.0194726547737 392.53322833561435 1015.2699411392068 391.17938047103877 1016.6486342465043 390.7619801587563 1018.0273273538018 390.3445798464737 1019.3534831679963 390.0547099128994 1020.6796389821907 389.76483997932513 1022.2794273325796 389.4658172775978 1023.8792156829685 389.16679457587054 1025.5458027096188 388.8304512243458 1027.2123897362692 388.49410787282096 1028.8932242356973 388.4298557723766 1030.5740587351256 388.3656036719322 1032.4073633278608 388.45484884651705 1034.2406679205963 388.5440940211019 1037.467295598362 388.1893999186469 1040.6939232761276 387.83470581619196 1042.505306843207 387.81644391318537 1044.3166904102866 387.7981820101788 1045.7242147832012 387.77137792135557 1047.1317391561158 387.74457383253235 1048.4368366183135 387.6838911273745 1049.7419340805113 387.62320842221663 1051.2176150050627 388.7544274640773 1052.693295929614 389.885646505938 1052.9288530923982 391.22201358119355 1053.1644102551822 392.5583806564492 1054.4465512273166 393.272377480444 1055.728692199451 393.98637430443875 1055.6912022867268 396.3287814992555 1055.653712374003 398.67118869407227 1056.4823563700043 399.65811069852964 1057.3110003660054 400.645032702987 1057.9306556531128 401.86083018156603 1058.5503109402202 403.076627660145 1058.5932916025577 403.1729861285353 1058.636272264895 403.26934459692563 1058.7301533083041 403.61834502870425 1058.824034351713 403.9673454604829 1058.831663333021 404.3286718369591 1058.8392923143292 404.6899982134352 1058.7602258367847 405.0426502286314 1058.68115935924 405.3953022438275 1058.5199927702322 405.71878374605103 1058.3588261812245 406.0422652482746 1058.124926490479 406.3177754774176 1057.891026799734 406.5932857065607 1057.5979882682668 406.8048119951607 1057.3049497368 407.0163382837607 1056.9698037778285 407.1515867139857 1056.634657818857 407.2868351442106 1056.2768831312633 407.33794507094126 1055.9191084436695 407.38905499767185 1055.5594989091064 407.35305590956517 1055.1998893745433 407.3170568214585 1054.8593455160558 407.1960409872067 1054.5188016575682 407.0750251529549 1054.217115900212 406.8760260185305 1053.915430142856 406.6770268841062 1053.6701364770233 406.4116102885521 1053.4248428111905 406.1461936929979 1053.2501977162647 405.82978566131806 1053.0755526213386 405.51337762963817 1053.5796903063076 403.78447037623187 1054.0838279912766 402.0555631228256 1055.248469425748 400.8899512842755 1056.4131108602194 399.72433944572543 1057.672204069096 399.47775393724373 1058.9312972779728 399.23116842876203 1060.1237233274474 399.6872631715764 1061.316149376922 400.1433579143907 1062.7328511428227 400.20979642062144 1064.1495529087235 400.27623492685217 1063.2073852134654 401.14192930907666 1062.2652175182075 402.0076236913012 1062.7838874578038 400.37651702865395 1063.3025573974003 398.7454103660067 1064.5114924660759 397.7259326424538 1065.7204275347515 396.70645491890093 1067.1298626709101 395.954595071983 1068.5392978070688 395.20273522506506 1069.742289100665 394.61092208336146 1070.945280394261 394.01910894165786 1072.3811219844602 393.8086877453586 1073.8169635746592 393.59826654905936 1075.6034152045645 393.19057423345953 1077.38986683447 392.7828819178597 1079.7478354252762 392.4895251551332 1082.1058040160822 392.1961683924067 1083.264620182938 390.3490050387177 1084.423436349794 388.5018416850287 1085.2462194462064 387.0331340501682 1086.0690025426186 385.56442641530776 1088.0127077397528 383.33309489159365 1089.9564129368873 381.10176336787947 1091.0151863324986 380.3506631199409 1092.07395972811 379.59956287200237 1093.4391313788499 377.69457509339657 1094.8043030295898 375.78958731479077 1095.0959230867197 374.4302919078634 1095.3875431438496 373.070996500936 1095.8938323792381 371.7101506747235 1096.4001216146266 370.34930484851094 1096.928057537621 369.14487321400003 1097.4559934606152 367.9404415794891 1098.578820002608 366.60782190475766 1099.7016465446006 365.27520223002614 1100.8421836231346 364.23801241181764 1101.9827207016683 363.2008225936091 1103.6624443195851 361.9289293575638 1105.3421679375017 360.65703612151844 1106.814794593582 359.8855181010093 1108.2874212496624 359.1140000805002 1108.4858893206142 359.08329565294525 1108.6843573915658 359.05259122539024 1109.0705061382282 359.0474823846289 1109.4566548848907 359.0423735438676 1109.832804803681 359.1298274940187 1110.2089547224712 359.21728144416977 1110.5532439624358 359.3922153575415 1110.8975332024004 359.5671492709132 1111.1899516567362 359.8193959802412 1111.482370111072 360.07164268956916 1111.7059224054738 360.3865416042555 1111.9294746998758 360.7014405189418 1112.0711679644894 361.06068969926946 1112.212861229103 361.41993887959705 1112.2644602447317 361.8026587463261 1112.3160592603604 362.18537861305515 1112.2745650897914 362.5693254695493 1112.2330709192224 362.9532723260434 1112.100895205599 363.31613116296353 1111.9687194919754 363.6789899998837 1111.7535442939834 363.99967144457923 1111.5383690959911 364.3203528892747 1111.2527004062476 364.58021892111276 1110.9670317165044 364.84008495295075 1110.6274726126796 365.0240321459511 1110.287913508855 365.20797933895136 1109.9141991820172 365.30531667361413 1109.5404848551796 365.4026540082769 1107.2175381288016 364.38384158489396 1104.8945914024239 363.365029161511 1105.0556908999297 361.0902925834608 1105.2167903974357 358.81555600541054 1106.427216561452 357.88112879905395 1107.6376427254686 356.94670159269737 1109.516158618988 355.86823011805905 1111.3946745125072 354.7897586434208 1113.0013178251018 353.70838677341806 1114.6079611376963 352.6270149034154 1116.0711248839507 352.4824056982254 1117.5342886302049 352.3377964930355 1118.928722226816 352.3504857092182 1120.3231558234272 352.36317492540087 1122.0818047738355 351.8476411283684 1123.8404537242438 351.3321073313359 1125.2744450048217 351.26343687217854 1126.7084362853996 351.1947664130211 1126.498436262555 351.89852590514965 1126.2884362397106 352.60228539727825 1126.4166129181003 352.23237868488206 1126.5447895964903 351.8624719724858 1126.7577686909472 351.5339904020998 1126.9707477854038 351.20550883171376 1127.2561509409506 350.9375437676424 1127.5415540964973 350.6695787035711 1127.8827936683242 350.47770428792853 1128.2240332401514 350.285829872286 1128.601276368311 350.18119785512454 1128.9785194964704 350.0765658379631 1129.369840792629 350.0652574370363 1129.7611620887878 350.0539490361095 1130.143817940827 350.1366214962105 1130.5264737928658 350.2192939563116 1130.8782242246857 350.3911423501751 1131.2299746565054 350.56299074403853 1131.5303759164817 350.8140272349388 1131.8307771764578 351.0650637258391 1132.0623699292464 351.38069806113015 1132.2939626820353 351.6963323964212 1132.4432867459627 352.0582198937059 1132.5926108098904 352.4201073909906 1132.6509874633455 352.8072151319236 1132.7093641168005 353.19432287285656 1132.6734005059416 353.58415213734656 1132.6374368950826 353.9739814018366 1132.430246796985 352.74094474924925 1132.2230566988878 351.5079080966619 1133.890583664674 351.8485828799477 1135.55811063046 352.18925766323343 1137.3427313600673 352.3011929393867 1139.1273520896746 352.4131282155399 1141.0202801236576 352.9694995600049 1142.9132081576406 353.5258709044699 1143.971370171475 355.0875007832758 1145.0295321853093 356.64913066208175 1145.3927852163267 359.16649884282583 1145.7560382473441 361.68386702356986 1144.1815253320044 363.1993910093428 1142.6070124166647 364.7149149951157 1142.4258548860255 364.80687570279065 1142.2446973553863 364.89883641046566 1141.884949619492 365.0207070643096 1141.5252018835981 365.1425777181535 1141.1467419586538 365.17481085266695 1140.7682820337097 365.20704398718044 1140.3931060283353 365.14776621107103 1140.0179300229609 365.0884884349616 1139.6678431842158 364.9411449753619 1139.3177563454708 364.79380151576225 1139.013105736872 364.56695598146723 1138.708455128273 364.34011044717215 1138.4669470575059 364.0469471112932 1138.225438986739 363.75378377541426 1138.0611099142238 363.4113413048069 1137.896780841709 363.0688988341996 1137.8191815808616 362.6970800013452 1137.7415823200142 362.32526116849084 1137.755222943521 361.9456761014246 1137.7688635670274 361.56609103435846 1137.872951281209 361.20080123501316 1137.9770389953906 360.83551143566785 1138.1655242174083 360.5057475643444 1138.354009439426 360.17598369302095 1138.61593739932 359.9009116414146 1138.8778653592144 359.62583958980827 1139.1980127916495 359.42144655848256 1139.5181602240843 359.2170535271568 1140.7793263625676 359.15981371708915 1142.0404925010507 359.10257390702145 1143.2165005624456 359.55337370375184 1144.3925086238405 360.0041735004822 1145.8020495447577 361.0759355515909 1147.211590465675 362.14769760269957 1148.6180606378066 362.474799405229 1150.0245308099384 362.8019012077585 1150.845397257492 363.96781758471917 1151.666263705046 365.13373396167987 1152.328926265342 366.5151555196927 1152.9915888256378 367.8965770777056 1154.3158717391914 368.08347661568075 1155.640154652745 368.27037615365583 1156.3993446760805 369.8638357868634 1157.1585346994161 371.4572954200709 1157.857383252072 372.9905998670672 1158.5562318047278 374.52390431406354 1160.4929007624967 375.04276613483773 1162.4295697202656 375.561627955612 1163.667591543373 376.2374410262937 1164.9056133664803 376.91325409697544 1165.3776294518425 379.68238259867167 1165.8496455372049 382.4515111003679 1164.7496507442404 383.68718950978763 1163.649655951276 384.92286791920736 1164.8654300228523 385.5382089417553 1166.0812040944284 386.1535499643032 1166.9215618079425 387.1532153781908 1167.7619195214568 388.15288079207835 1169.3350338632808 389.0400771842129 1170.908148205105 389.92727357634743 1171.6851111833116 391.03971163995107 1172.4620741615186 392.15214970355464 1172.497097539996 392.24496562921735 1172.5321209184733 392.33778155488005 1172.6102814258713 392.7067628241906 1172.6884419332694 393.0757440935012 1172.676025341073 393.4527083759697 1172.6636087488766 393.8296726584382 1172.5613367100077 394.19271077225596 1172.4590646711388 394.55574888607373 1172.2728812413015 394.8837610390084 1172.0866978114645 395.21177319194305 1171.827423980349 395.4856953022545 1171.5681501492336 395.7596174125659 1171.250854924086 395.9635291143326 1170.9335596989388 396.16744081609926 1170.576684293153 396.2894907516338 1170.2198088873672 396.4115406871684 1169.844094916295 396.44463530848304 1169.4683809452229 396.47772992979765 1169.0956649225159 396.41994577594664 1168.722948899809 396.3621616220956 1168.3748930982188 396.2168571108157 1168.0268372966289 396.07155259953583 1167.7236707356974 395.84717283584973 1167.4205041747662 395.6227930721637 1167.1798469092591 395.33237901847934 1166.939189643752 395.041964964795 1166.7750286852474 394.7023954995575 1166.610867726743 394.36282603432 1168.6457909313567 394.87080932296504 1170.6807141359702 395.3787926116101 1169.6121192164178 396.4279403252342 1168.5435242968656 397.4770880388583 1168.4238617955475 396.11770893920027 1168.3041992942296 394.75832983954217 1169.7622049662186 395.9797742183403 1171.2202106382078 397.20121859713845 1172.4389030417337 399.06121801123214 1173.6575954452596 400.92121742532584 1174.6211328069633 402.2984007651718 1175.584670168667 403.6755841050178 1176.9734638621549 406.074943362967 1178.362257555643 408.4743026209163 1178.6079259141852 409.8892936957408 1178.8535942727274 411.3042847705652 1178.994726337814 412.9288206195848 1179.1358584029003 414.55335646860453 1180.5518446619326 415.6126088660283 1181.9678309209646 416.6718612634521 1183.7732794084836 419.04885118592676 1185.5787278960029 421.42584110840136 1186.9318307228061 422.62176486123906 1188.2849335496094 423.8176886140767 1189.1946003241042 424.68394471465587 1190.1042670985992 425.55020081523503 1191.002818865586 426.57210637997116 1191.901370632573 427.5940119447073 1192.2254509091408 429.0964245539176 1192.549531185709 430.59883716312794 1194.0687342518595 431.9869217229229 1195.5879373180103 433.37500628271783 1196.4985381248166 434.6463803783473 1197.409138931623 435.91775447397686 1198.5542507891655 437.21045370890374 1199.6993626467079 438.50315294383057 1200.5973195221702 439.73442618333195 1201.4952763976326 440.9656994228333 1201.9680184417646 442.1932048873738 1202.4407604858966 443.42071035191424 1202.4125715686505 445.0885570646825 1202.3843826514042 446.7564037774508 1202.655738027499 448.42913459722934 1202.9270934035935 450.1018654170078 1203.0505122725508 452.1228475947704 1203.1739311415083 454.14382977253297 1203.469498163518 455.66954256321856 1203.7650651855279 457.1952553539041 1204.4285844090487 459.2668186884871 1205.0921036325697 461.33838202307015 1206.0253016411275 462.46127585386984 1206.9584996496856 463.5841696846695 1208.288008359838 464.91728979856765 1209.6175170699903 466.2504099124658 1210.4729988427803 467.8995767059887 1211.32848061557 469.5487434995116 1212.8188905967572 469.7823970840871 1214.3093005779447 470.0160506686626 1216.3553492205124 470.76264603389006 1218.4013978630799 471.5092413991175 1220.3976348067156 472.300626131195 1222.3938717503513 473.09201086327244 1223.6974842051543 472.87814654961505 1225.0010966599573 472.6642822359577 1226.4064806593854 472.65915840932416 1227.8118646588134 472.6540345826906 1229.0536927673334 472.2589203430827 1230.2955208758533 471.8638061034748 1231.5385916669927 471.08136250907035 1232.7816624581321 470.29891891466593 1234.2247921777046 469.57161927038663 1235.667921897277 468.84431962610734 1237.3332118442218 468.55265441058 1238.9985017911663 468.26098919505256 1240.8824673130687 468.2859123985154 1242.766432834971 468.3108356019782 1244.6084371003053 468.33642413595254 1246.4504413656393 468.36201266992686 1247.622033255158 467.83643514042103 1248.7936251446768 467.31085761091526 1250.3288043970258 466.7304709239487 1251.8639836493749 466.15008423698214 1253.2540275654706 465.9236889279324 1254.6440714815662 465.69729361888267 1256.3237540634682 465.0590337812789 1258.0034366453704 464.42077394367516 1259.6374626827571 464.08250286943246 1261.271488720144 463.74423179518976 1263.2194722363101 463.45542179819074 1265.1674557524761 463.1666118011917 1268.175480456766 463.0852013215426 1271.183505161056 463.00379084189353 1271.635478068881 463.07610941107885 1272.087450976706 463.1484279802641 1272.4926709043934 463.36128073467813 1272.8978908320812 463.57413348909216 1273.2139311462347 463.9052346891601 1273.5299714603884 464.2363358892281 1273.7237426566899 464.65101915190064 1273.917513852991 465.0657024145732 1273.9687280360365 465.5205502927828 1274.019942219082 465.9753981709924 1273.9232372503875 466.42278797182223 1273.8265322816933 466.87017777265214 1273.5920331970092 467.263267665856 1273.3575341123249 467.6563575590599 1273.0097930277188 467.9539909290537 1272.6620519431128 468.2516242990474 1272.2374774419382 468.4226388534251 1271.8129029407635 468.5936534078028 1271.3559480853696 468.6201438775776 1270.898993229976 468.64663434735246 1270.4575013143474 468.5258271733462 1270.0160093987188 468.40501999934 1269.6362047429643 468.1495637245612 1269.2564000872096 467.89410744978227 1268.978048339045 467.530748413634 1268.6996965908806 467.1673893774858 1268.551941251817 466.7341713669704 1268.404185912753 466.30095335645495 1268.4024970057937 465.8432344116317 1268.4008080988344 465.3855154668085 1268.5453624529837 464.9512188820266 1268.6899168071332 464.51692229724466 1268.9655795433532 464.1515190395738 1269.2412422795733 463.78611578190305 1269.619151436614 463.5278636688786 1269.9970605936546 463.26961155585417 1270.4376489830154 463.14554965188165 1270.8782373723761 463.0214877479091 1271.335375273387 463.0446053670836 1271.7925131743975 463.0677229862581 1272.2183381281498 463.2355997077496 1272.644163081902 463.4034764292411 1272.994091103331 463.6985355159943 1273.3440191247598 463.99359460274746 1273.5814126576497 464.38494329049126 1273.8188061905398 464.776291978235 1273.9188100693316 465.2229559560566 1274.0188139481234 465.66961993387815 1273.9709577403087 466.12483336539174 1273.9231015324942 466.5800467969054 1273.7323957956646 466.9961487156669 1273.5416900588348 467.41225063442835 1273.2281017339774 467.7456750597032 1272.9145134091198 468.07909948497803 1272.5108752766264 468.29493679142445 1272.107237144133 468.5107740978708 1271.655810223026 468.5864260625283 1271.2043833019188 468.6620780271857 1271.204807673461 468.6620764613251 1271.205232045003 468.66207489546457 1268.4581035582626 468.6852176165835 1265.7109750715222 468.7083603377024 1264.170732261232 468.9098340886563 1262.630489450942 469.11130783961016 1260.567440058459 469.69044977024316 1258.5043906659757 470.26959170087616 1257.218446305458 470.8548947717656 1255.9325019449402 471.44019784265504 1254.2366656093186 471.68941889479385 1252.5408292736972 471.93863994693265 1251.3354041616535 472.52398459707416 1250.12997904961 473.10932924721567 1248.2918445687792 473.77579267813496 1246.4537100879486 474.4422561090542 1244.6171922690983 474.4706327367481 1242.7806744502482 474.499009364442 1240.7329171262197 474.4192931361905 1238.6851598021913 474.339576907939 1237.4992769093801 474.95003555190385 1236.313394016569 475.56049419586867 1235.088223780824 476.2182630944234 1233.8630535450789 476.87603199297814 1232.2854841489093 477.5378616417177 1230.7079147527397 478.1996912904573 1229.3310407781642 478.6322620342653 1227.9541668035884 479.06483277807325 1226.6656766247934 479.04216549393703 1225.3771864459984 479.0194982098008 1223.392721488597 479.3579320779162 1221.4082565311958 479.69636594603156 1220.363356010604 478.3334756547482 1219.3184554900124 476.9705853634649 1220.3462681149863 477.96537668164785 1221.3740807399602 478.9601679998308 1219.4901564571974 478.31432250320154 1217.6062321744344 477.6684770065723 1215.9317780244487 477.0415711052988 1214.2573238744628 476.41466520402525 1213.057454364181 475.8516555046739 1211.857584853899 475.2886458053226 1210.14841870512 474.8551420974842 1208.439252556341 474.4216383896458 1207.219740441335 472.39154133353736 1206.0002283263293 470.361444277429 1205.1615478131832 469.00294717953335 1204.3228673000372 467.64445008163773 1203.3088615249112 466.45234936224796 1202.2948557497855 465.2602486428582 1201.1632563857438 463.0615950301885 1200.0316570217021 460.8629414175188 1199.476860547817 459.58212779451947 1198.9220640739318 458.3013141715201 1198.4594888141974 456.43252674571875 1197.9969135544627 454.56373931991743 1197.8441586607682 453.1208986077843 1197.691403767074 451.6780578956512 1197.3037579209977 450.25501989760437 1196.9161120749213 448.8319818995576 1197.4941472179416 446.8260785246787 1198.0721823609617 444.82017514979975 1197.1107033656237 443.79532160891483 1196.1492243702858 442.7704680680299 1195.2748636982174 441.78380917783215 1194.400503026149 440.79715028763445 1193.072415672822 439.0781107175425 1191.744328319495 437.3590711474505 1190.7030862809934 436.42240753211195 1189.6618442424917 435.4857439167734 1188.5879509056645 433.2254509614669 1187.514057568837 430.9651580061604 1186.5893020969029 429.99658875262537 1185.6645466249686 429.02801949909036 1184.36751189183 427.7664535080364 1183.0704771586911 426.5048875169824 1181.8653690044466 425.3188788783191 1180.6602608502021 424.1328702396557 1179.647436616905 422.793582501856 1178.634612383608 421.45429476405627 1176.6551212034874 419.8223408180236 1174.6756300233667 418.1903868719909 1173.9916285343002 416.52253255906896 1173.3076270452339 414.85467824614705 1173.2197919495893 413.55821319092445 1173.131956853945 412.2617481357018 1172.7807841161757 410.71086691191374 1172.4296113784067 409.1599856881257 1171.1179382042696 407.48174375687324 1169.8062650301324 405.8035018256208 1168.9022593948193 404.35431169511196 1167.9982537595063 402.9051215646031 1167.0558218099281 402.035688165783 1166.1133898603498 401.1662547669629 1165.1396399659889 400.0862912682731 1164.165890071628 399.0063277695833 1163.8039185520447 397.1027470260292 1163.4419470324613 395.19916628247506 1164.1748226798968 393.9728118777799 1164.9076983273326 392.74645747308483 1166.052333757481 392.05806818844707 1167.1969691876295 391.3696789038093 1169.8644944121365 391.8535822030781 1172.5320196366436 392.3374855023469 1172.6102170417776 392.70645895376185 1172.6884144469118 393.0754324051768 1172.6760355512056 393.4523979274197 1172.6636566554996 393.8293634496626 1172.5614209209534 394.19241178886904 1172.459185186407 394.5554601280755 1172.273034558716 394.88349089771305 1172.086883931025 395.21152166735055 1171.8276374934171 395.48546970367545 1171.568391055809 395.75941774000034 1171.2511162234182 395.96336117026993 1170.9338413910273 396.1673046005395 1170.5769781920194 396.2893902230044 1170.2201149930113 396.41147584546917 1169.84440433328 396.44460803801536 1169.4686936735486 396.47774023056155 1169.0959718742897 396.4199933486017 1168.723250075031 396.3622464666418 1168.3751797447303 396.21697676166855 1168.0271094144293 396.07170705669523 1167.7239204170373 395.8473576107871 1167.4207314196456 395.623008164879 1167.1800451139366 395.33261817837325 1166.9393588082273 395.0422281918675 1166.7751638935972 394.70267514442367 1166.610968978967 394.36312209697985 1166.054513301076 394.19321229089405 1165.498057623185 394.0233024848083 1164.3124414618765 393.21447277559696 1163.1268253005676 392.40564306638555 1161.8551654304733 390.9042746598336 1160.5835055603793 389.4029062532816 1159.7347356469656 388.27535490283583 1158.885965733552 387.1478035523901 1158.362457413851 385.03998216876437 1157.83894909415 382.93216078513865 1158.543717221626 381.6922561790526 1159.2484853491019 380.4523515729666 1160.608636392155 379.60521732340857 1161.9687874352082 378.7580830738505 1161.578476120283 380.43003805886144 1161.1881648053582 382.10199304387237 1160.028854720623 381.4215779150955 1158.869544635888 380.7411627863186 1157.1424433745951 380.05584981971833 1155.4153421133026 379.3705368531181 1154.1434565143559 378.12134164030704 1152.8715709154094 376.87214642749603 1152.6122727836314 375.0131284155043 1152.3529746518534 373.1541104035125 1151.0650297990353 372.8487845680462 1149.7770849462172 372.54345873257984 1148.613039909726 371.23450950077546 1147.4489948732348 369.9255602689711 1145.9661038357042 368.5382278735201 1144.4832127981736 367.1508954780692 1143.364097114535 366.02479776663495 1142.2449814308966 364.8987000552008 1141.8852458838664 365.0206066832089 1141.5255103368365 365.142513311217 1141.1470536370982 365.1747842915617 1140.76859693736 365.2070552719064 1140.3934150060836 365.14781501369384 1140.0182330748073 365.0885747554813 1139.6681315034668 364.9412663053022 1139.3180299321264 364.79395785512304 1139.0133566404972 364.56714278702304 1138.7086833488681 364.340327718923 1138.467145962975 364.0471885353169 1138.225608577082 363.7540493517108 1138.0612452611417 363.411623315723 1137.8968819452016 363.0691972797351 1137.8192455028588 362.6973862086658 1137.7416090605163 362.32557513759656 1137.7552117254481 361.945988708366 1137.76881439038 361.5664022791354 1137.872865575061 361.2011020728451 1137.9769167597424 360.83580186655485 1138.1653690044304 360.50601914835806 1138.3538212491187 360.1762364301613 1138.6157217004982 359.90113818713434 1138.8776221518776 359.6260399441074 1139.1977491434088 359.42161489906044 1139.51787613494 359.2171898540135 1139.5673905108742 359.47380861224707 1139.6169048868087 359.73042737048064 1140.7827757930982 358.7369450108987 1141.9486466993878 357.7434626513168 1141.8175314119553 359.36873751048614 1141.686416124523 360.9940123696555 1141.111716263081 359.7588132173571 1140.537016401639 358.5236140650588 1138.6241621757886 358.50522936788013 1136.711307949938 358.48684467070143 1134.5323112850458 358.2150689149779 1132.3533146201537 357.9432931592543 1130.1708576405 357.1375854300855 1127.9884006608459 356.33187770091666 1127.1383841737506 354.46724027754243 1126.2883676866556 352.6026028541682 1126.4165073737336 352.23268332595364 1126.5446470608113 351.86276379773915 1126.7575933060461 351.5342609310861 1126.9705395512808 351.20575806443316 1127.2559159088942 350.9377644613861 1127.5412922665078 350.66977085833906 1127.882512649187 350.4778623196988 1128.2237330318665 350.2859537810585 1128.6009656949382 350.18128404010747 1128.9781983580096 350.0766142991564 1129.3695185213714 350.0652667661566 1129.7608386847335 350.0539192331568 1130.143502802105 350.13655342725934 1130.526166919477 350.21918762136187 1130.8779345343773 350.39100083932294 1131.2297021492777 350.5628140572841 1131.530128511401 350.8138205068032 1131.8305548735243 351.06482695632235 1132.0621791885885 351.38043813076 1132.2938035036527 351.6960493051977 1132.4431637555833 352.0579218682666 1132.592524007514 352.4197944313355 1132.6509393714514 352.8068963326676 1132.7093547353886 353.19399823399965 1132.6734301076358 353.5838310929016 1132.637505479883 353.9736639518036 1132.1769306672518 354.7903601259138 1131.7163558546204 355.6070563000241 1130.3081824074068 356.60890235693375 1128.9000089601932 357.61074841384345 1127.4173287704075 357.5921660012908 1125.9346485806218 357.57358358873813 1124.5401906868415 357.6428163994582 1123.1457327930611 357.7120492101782 1121.8722746301355 358.17686864052166 1120.5988164672096 358.6416880708652 1118.4933089261385 358.51831060530424 1116.3878013850676 358.39493313974333 1115.1348758708732 359.24828847334607 1113.8819503566788 360.1016438069488 1112.0976824149343 360.8392435619095 1110.3134144731896 361.5768433168701 1109.498727182949 360.3147386901918 1108.6840398927086 359.05263406351355 1109.0701881265563 359.0474866079031 1109.4563363604038 359.04233915229275 1109.8324950227084 359.1297554870148 1110.208653685013 359.21717182173677 1110.5529604166472 359.3920713053099 1110.8972671482818 359.56697078888305 1111.1897108258263 359.8191882551044 1111.482154503371 360.07140572132573 1111.7057382865464 360.38628227920816 1111.929322069722 360.7011588370906 1112.0710512585451 361.0603938462955 1112.2127804473685 361.41962885550043 1112.2644177347256 361.80234356041433 1112.316055022083 362.1850582653282 1112.274599246407 362.5690092693197 1112.2331434707312 362.95296027331113 1112.1010040436522 363.31583232598837 1111.968864616573 363.67870437866554 1111.7537214878012 363.9994073392774 1111.5385783590293 364.3201102998893 1111.2529356573175 364.5800048972969 1110.9672929556057 364.83989949470447 1110.627752248198 365.0238806426954 1110.2882115407904 365.2078617906863 1109.9145069495548 365.305236496295 1109.540802358319 365.40261120190365 1109.457005801149 364.8674688787796 1109.3732092439789 364.3323265556556 1108.6436196094655 365.52068782640083 1107.9140299749522 366.709049097146 1106.6783148226457 367.5117669489885 1105.4425996703392 368.314484800831 1104.0907651225964 369.049784206037 1102.7389305748536 369.78508361124295 1102.3084731508325 371.32301980486636 1101.8780157268116 372.8609559984898 1100.99064349326 374.17044031683844 1100.1032712597084 375.47992463518705 1099.379091969088 377.34104300203717 1098.6549126784676 379.20216136888723 1097.9813621466744 380.56177835491724 1097.3078116148813 381.9213953409473 1095.7573014862496 383.4548873000331 1094.206791357618 384.9883792591189 1093.2909917480438 386.12355259381707 1092.3751921384699 387.2587259285153 1091.2612776019641 388.34528014115403 1090.1473630654586 389.43183435379285 1089.575446709455 390.5444697097423 1089.0035303534514 391.6571050656917 1088.7778608851143 393.27154946808804 1088.552191416777 394.88599387048436 1087.6830843634211 395.8332712524526 1086.8139773100652 396.7805486344209 1085.1447192052265 397.30863571386857 1083.4754611003875 397.83672279331626 1081.7993276479433 398.2787130366532 1080.1231941954993 398.7207032799901 1078.4362651137471 398.87918150780064 1076.7493360319947 399.03765973561116 1075.2044594921963 398.97182478243064 1073.6595829523978 398.9059898292501 1072.3980660952789 399.9799438097209 1071.13654923816 401.0538977901918 1069.6367668123744 401.3520644109909 1068.136984386589 401.6502310317901 1067.4642096706189 403.2401515683501 1066.7914349546486 404.8300721049101 1065.4415101661202 405.69200130424076 1064.091585377592 406.5539305035715 1062.5300998008702 406.4110437633326 1060.968614224148 406.26815702309375 1059.3319060659705 405.94012225006577 1057.6951979077933 405.61208747703773 1058.1656789716167 404.4405770246012 1058.6361600354403 403.2690665721648 1058.730075978423 403.618057614094 1058.8239919214056 403.96704865602334 1058.8316570353131 404.32837426779474 1058.8393221492208 404.6896998795662 1058.760290937273 405.04235979964676 1058.6812597253252 405.3950197197274 1058.5201254852734 405.7185173369924 1058.3589912452217 406.04201495425747 1058.1251191066685 406.317548571992 1057.8912469681156 406.59308218972654 1057.5982295907427 406.804637781122 1057.3052122133697 407.0161933725175 1056.9700797809169 407.151475316662 1056.6349473484643 407.28675726080655 1056.277177773652 407.33790296475036 1055.9194081988398 407.3890486686941 1055.5597950661659 407.3530855417208 1055.200181933492 407.31712241474753 1054.859625975124 407.1961406354866 1054.519070016756 407.07515885622564 1054.2173643609947 406.876189891372 1053.9156587052335 406.6772209265184 1053.6703384989678 406.4118288616578 1053.4250182927021 406.1464367967973 1053.2503415578462 405.83004623120894 1053.0756648229903 405.5136556656206 1053.036688087994 405.08746403285494 1052.9977113529976 404.6612724000893 1052.0156380632893 403.65950332023715 1051.0335647735812 402.6577342403851 1050.3674623500197 400.9883514653614 1049.7013599264583 399.3189686903377 1050.3643056766466 398.0480191276456 1051.027251426835 396.7770695649534 1049.9345266909158 395.47446502861555 1048.841801954997 394.17186049227774 1048.3725963997783 392.1921652361169 1047.9033908445597 390.21246997995615 1048.8505988778952 391.3497597949468 1049.797806911231 392.48704960993746 1048.506241329288 392.45619578057995 1047.2146757473454 392.4253419512225 1045.8424799860206 392.4477909080965 1044.470284224696 392.47023986497055 1042.7566958421862 392.56786748125154 1041.0431074596765 392.6654950975325 1039.351204108072 392.84753186927344 1037.6593007564672 393.02956864101435 1035.9654370952812 393.40712186362003 1034.2715734340952 393.7846750862257 1032.4343546578534 393.87584236604323 1030.5971358816114 393.96700964586074 1029.0827194852573 393.9429601779645 1027.5683030889033 393.91891071006825 1026.3120252192923 394.1062735427648 1025.0557473496813 394.29363637546146 1022.7995703591214 394.77025374764287 1020.5433933685614 395.2468711198243 1019.0610787710391 395.91591860183587 1017.5787641735169 396.5849660838475 1015.9510853265742 397.6836811861475 1014.3234064796316 398.78239628844744 1012.7839467370218 399.3170652390687 1011.2444869944119 399.8517341896899 1009.6848174315624 400.3053495362143 1008.1251478687128 400.75896488273867 1006.720917335889 400.9352204733784 1005.3166868030652 401.11147606401823 1003.2715771520961 401.5435595007411 1001.2264675011271 401.97564293746393 999.3075566439193 402.45774182482035 997.3886457867115 402.93984071217676 995.8914995403709 402.8458677445474 994.3943532940302 402.751894776918 992.1194518746487 403.27308756579976 989.8445504552672 403.7942803546815 988.1211724745708 403.86145239727944 986.3977944938745 403.92862443987735 984.6035178432032 404.0242194896196 982.8092411925319 404.11981453936187 981.2890194321787 404.12316327097415 979.7687976718257 404.1265120025865 978.414376341484 404.08017757341963 977.0599550111422 404.03384314425284 975.7755925816191 403.36784276097995 974.491230152096 402.70184237770707 972.8020692390194 402.40097943443004 971.1129083259427 402.100116491153 969.2117818182959 401.7714977203493 967.310655310649 401.44287894954556 965.0581002272911 401.23258459544684 962.8055451439332 401.0222902413481 960.0697384953245 400.37399399079936 957.3339318467158 399.7256977402506 955.9568165481754 399.3552469518452 954.579701249635 398.9847961634397 953.1874048531586 398.9805786910328 951.7951084566822 398.9763612186259 950.6325296985597 398.45771650887235 949.469950940437 397.9390717991188 948.3216283619993 397.16645757670835 947.1733057835615 396.3938433542979 946.3597682949435 394.95307306447484 945.5462308063254 393.51230277465174 944.4014369739183 392.31081850389154 943.2566431415112 391.10933423313134 941.6346241227071 388.783990730074 940.0126051039031 386.4586472270166 940.0261679569956 385.18211183283165 940.0397308100881 383.9055764386466 940.3419638359172 382.59326712071396 940.6441968617463 381.2809578027813 941.9401110798538 379.5898103427842 943.2360252979612 377.898662882787 944.543973663997 377.02235915777607 945.8519220300328 376.14605543276514 948.5396585206161 376.339386124781 951.2273950111992 376.5327168167969 951.4070295509596 376.89549283241683 951.5866640907201 377.25826884803683 951.6742577538765 377.65349328498235 951.761851417033 378.04871772192786 951.7523132557671 378.4534201173541 951.7427750945013 378.8581225127803 951.6366594671941 379.2487815444502 951.530543839887 379.6394405761201 951.3340181917833 379.993351122758 951.1374925436799 380.34726166939583 950.8619789546814 380.6438544334027 950.5864653656829 380.9404471974096 950.247976698527 381.162484193406 949.9094880313712 381.3845211894024 949.5276972632969 381.5190976167487 949.1459064952227 381.653674044095 948.7430033236087 381.6929683145107 948.3401001519949 381.7322625849265 947.9395013281058 381.6739909135689 947.5389025042168 381.61571924221136 947.1638908505192 381.4632683813576 946.7888791968217 381.31081752050386 946.4612504082481 381.07304792134966 946.1336216196747 380.83527832219545 945.8724174968108 380.52600916501524 945.6112133739471 380.21674000783497 945.2066352386946 379.77056829760966 944.8020571034423 379.3243965873844 944.6508316063635 377.94213932751086 944.4996061092847 376.5598820676373 943.0453131868614 375.87059047038656 941.5910202644383 375.18129887313574 940.7408077317423 373.68450564185713 939.8905951990464 372.1877124105785 939.526873078702 370.85253853628114 939.1631509583577 369.51736466198383 939.7173779394391 370.83867720764374 940.2716049205203 372.15998975330365 938.8913341028348 371.63766265778776 937.5110632851492 371.11533556227187 936.6863830647385 369.80470923868813 935.8617028443276 368.4940829151044 937.0154716404893 369.7810123576245 938.1692404366511 371.0679418001446 936.5632559780142 371.06367863336254 934.9572715193775 371.05941546658045 933.6054580077895 370.6521923280511 932.2536444962014 370.2449691895218 931.3882600021284 369.03047519209116 930.5228755080554 367.81598119466054 931.2132906490467 368.86442188023454 931.903705790038 369.9128625658085 930.5996643300992 369.9038714794509 929.2956228701605 369.8948803930933 927.991295894745 369.82214802465955 926.6869689193295 369.74941565622584 924.6862425955513 368.58586165334 922.6855162717732 367.4223076504542 921.7587998342683 366.38735112249987 920.8320833967636 365.35239459454556 919.4471745827284 365.43505036833005 918.0622657686931 365.5177061421145 916.3247667236581 365.9312030037238 914.5872676786229 366.34469986533315 914.2037438269018 366.45732146451456 913.8202199751807 366.569943063696 913.4208883816339 366.58750574676094 913.0215567880869 366.60506842982585 912.6296266236936 366.5265514528094 912.2376964593004 366.44803447579284 911.87594672363 366.2780012490882 911.5141969879597 366.10796802238366 911.2036525926462 365.85630088511596 910.8931081973326 365.6046337478483 910.6518179972225 365.2859596058601 910.4105277971122 364.9672854638719 910.2525155899727 364.6001256732684 910.0945033828332 364.2329658826648 910.0289528455675 363.8386597877267 909.9634023083017 363.44435369278864 909.9941232412157 363.04581838228023 910.0248441741295 362.64728307177177 910.1500510751586 362.2676814366649 910.2752579761876 361.888079801558 910.4876738143612 361.5494743067205 910.7000896525349 361.210868811883 910.987368809358 360.93293922458423 911.2746479661813 360.65500963728545 911.6200937635618 360.45390923819764 911.9655395609424 360.2528088391098 912.6877271920612 359.8669956200257 913.40991482318 359.4811824009416 913.5131901521274 360.8091197948056 913.6164654810748 362.1370571886697 912.053603233653 361.6217267226348 910.4907409862312 361.1063962565998 909.5785524516641 359.89282095169517 908.6663639170969 358.67924564679055 907.1118304680556 356.45437622097984 905.5572970190142 354.2295067951691 905.168190741945 352.90159289189523 904.7790844648756 351.57367898862145 903.9420284660923 350.45810995291333 903.1049724673092 349.34254091720527 903.2378945054419 346.7309262747017 903.3708165435746 344.1193116321981 903.3376127452548 342.79695470578486 903.304408946935 341.47459777937155 902.848578828309 340.1866013753971 902.392748709683 338.8986049714227 902.5171208909187 337.4981347269859 902.6414930721545 336.0976644825491 903.0804477240092 334.8609487598752 903.519402375864 333.62423303720135 904.6292587326878 332.2767778189352 905.7391150895116 330.929322600669 905.1865069774769 332.3310721516991 904.6338988654421 333.7328217027292 903.2812667648943 333.45705773088025 901.9286346643466 333.18129375903135 899.9798253123992 331.8336558555187 898.0310159604517 330.48601795200614 896.8574258803037 329.1393672665253 895.6838358001556 327.7927165810445 894.9455811035277 326.6095037933208 894.2073264068998 325.42629100559714 893.7618243007807 323.236591214966 893.3163221946617 321.0468914243348 893.3632935769353 320.65974417947507 893.4102649592091 320.2725969346154 893.5485246436074 319.9079415361565 893.6867843280055 319.5432861376975 893.9082966551748 319.222316374531 894.1298089823441 318.90134661136443 894.4216996454218 318.64271726120626 894.7135903084993 318.3840879110481 895.0588946084328 318.20283052388106 895.4041989083662 318.0215731367141 895.7828477430194 317.92822240039675 896.1614965776724 317.83487166407946 896.5514828589844 317.83485312779266 896.9414691402965 317.83483459150585 897.320126847274 317.92814933257944 897.6987845542516 318.021464073653 898.044106083174 318.2026886349514 898.3894276120965 318.38391319624975 898.681342859478 318.64251479775544 898.9732581068596 318.9011163992612 899.1948009448067 319.2220651037444 899.416343782754 319.54301380822756 899.5546381311162 319.90765606190394 899.6929324794785 320.2722983155804 899.7399406642312 320.6594410935337 899.7869488489839 321.046583871487 899.7676218916979 322.2264541914426 899.7482949344118 323.40632451139817 899.7056351453368 324.79651360173176 899.6629753562618 326.18670269206535 899.0952736861939 327.773483388209 898.527572016126 329.3602640843527 898.5026798275762 330.87138817448295 898.4777876390266 332.3825122646131 898.4680837063255 334.2889139524689 898.4583797736244 336.19531564032457 897.6421759229409 337.7734169065486 896.8259720722572 339.3515181727727 895.2875362547381 339.8161052560867 893.7491004372192 340.2806923394007 892.5444657982648 338.72593486938524 891.3398311593103 337.1711773993698 891.4819567299735 335.7834783811522 891.6240823006366 334.39577936293455 892.181264736124 332.4479938866681 892.7384471716115 330.50020841040157 893.1853209170283 328.52576157590295 893.632194662445 326.5513147414043 893.7282282539138 324.96270621137467 893.8242618453826 323.37409768134506 893.9752229081853 322.0157452184812 894.1261839709881 320.6573927556173 895.4218747352993 319.52063370047256 896.7175654996106 318.38387464532786 895.0471000381646 318.38229310541067 893.3766345767185 318.38071156549347 891.8918077029741 318.3809907682863 890.4069808292297 318.38126997107923 888.998766683296 318.98291573005554 887.5905525373624 319.5845614890319 885.607072452236 319.6711686773172 883.6235923671096 319.7577758656025 882.7376727086362 320.77816995987337 881.8517530501629 321.7985640541442 880.484407197103 322.524789075976 879.1170613440431 323.2510140978078 877.9543632145942 323.99919374726323 876.7916650851454 324.7473733967187 875.4995887790245 325.15260565636447 874.2075124729037 325.55783791601027 873.0775272396193 326.62517089362336 871.9475420063349 327.6925038712365 870.6762377667278 327.6199720314396 869.4049335271208 327.54744019164275 867.6256324752928 327.5666802180107 865.8463314234648 327.5859202443786 863.4316134560358 327.5188452262723 861.016895488607 327.45177020816595 858.5208553879094 327.34567528448406 856.0248152872117 327.2395803608022 854.2460909734928 327.16972816401744 852.4673666597738 327.09987596723266 850.5954648685589 326.9609348500919 848.723563077344 326.8219937329512 846.0234629739763 326.6348183987775 843.3233628706085 326.44764306460377 840.6358864978413 326.70805508116575 837.9484101250741 326.96846709772774 835.7715966745064 327.90644291823526 833.5947832239387 328.84441873874283 831.9185571661797 329.14146472746097 830.2423311084206 329.4385107161791 828.9831902667727 329.34106137123445 827.7240494251249 329.2436120262898 826.3994683977486 329.16998178042957 825.0748873703723 329.09635153456935 822.709704703324 329.10120588196355 820.3445220362755 329.1060602293577 817.7987002368902 329.1310344720162 815.252878437505 329.1560087146747 811.5160490659387 329.16867272805246 807.7792196943724 329.1813367414302 804.2644538008881 329.14668497116713 800.7496879074038 329.1120332009041 796.6656388840577 328.82804861521714 792.5815898607116 328.5440640295302 790.6198651293196 328.510268260123 788.6581403979277 328.4764724907157 787.2656804594626 328.4905246996191 785.8732205209975 328.50457690852244 784.071618086815 328.62284922928245 782.2700156526324 328.74112155004246 779.3652366479736 329.1658837401361 776.4604576433147 329.59064593022975 774.3793970112696 329.64209625534295 772.2983363792245 329.6935465804561 770.4131865750685 329.7404240496352 768.5280367709124 329.78730151881433 766.3639005074576 329.92809542123877 764.1997642440028 330.0688893236632 762.2332132124595 330.28177740580776 760.2666621809162 330.4946654879523 758.3093407811228 330.88974646532154 756.3520193813295 331.2848274426908 754.5333759325365 331.60977873468687 752.7147324837437 331.934730026683 751.1134423580708 331.8006917232194 749.5121522323979 331.6666534197559 748.1279049444064 331.3090835606675 746.7436576564149 330.9515137015791 745.5591347375499 330.34947153848583 744.3746118186849 329.7474293753926 743.0908995028223 329.11832709550555 741.8071871869596 328.4892248156185 740.1003579731178 327.71579847684944 738.393528759276 326.9423721380804 736.2843120967228 325.50318908193884 734.1750954341696 324.0640060257973 732.4818426918625 323.7053881797354 730.7885899495553 323.3467703336735 729.542974231844 323.9433774620286 728.2973585141327 324.53998459038365 726.449450591741 325.1753377615429 724.6015426693492 325.81069093270213 722.4285161437571 326.65560598340073 720.2554896181649 327.5005210340993 716.0218978212297 328.7326181132886 711.7883060242946 329.9647151924779 709.424096312604 330.50485349958956 707.0598866009133 331.04499180670126 704.5286388609561 331.53245712113153 701.9973911209988 332.01992243556174 700.2039494811006 332.1568758031233 698.4105078412023 332.29382917068483 696.9025133441155 332.8656541730666 695.3945188470288 333.4374791754484 694.249038359494 334.08299652751793 693.1035578719591 334.7285138795874 691.2523401533899 335.5187958089098 689.4011224348209 336.30907773823213 687.6193085366754 336.55025825828784 685.83749463853 336.7914387783435 683.5104480199586 336.7094050570804 681.1834014013874 336.6273713358174 678.7386322192558 336.4426097345647 676.2938630371241 336.257848133312 673.6389913902082 335.83105680572015 670.9841197432922 335.4042654781283 667.1314820781649 334.37493244623806 663.2788444130376 333.3455994143478 660.3472375124535 332.3900337880495 657.4156306118693 331.43446816175117 655.1459540224375 330.5990964387747 652.8762774330057 329.7637247157983 651.056045026496 329.1513606845725 649.2358126199863 328.53899665334677 647.7823860380281 328.50210520179667 646.3289594560699 328.4652137502465 644.0220176822511 328.2856491250132 641.7150759084321 328.1060844997799 639.6691695346517 327.9542777036785 637.6232631608711 327.80247090757706 636.2738340327003 327.46619450584245 634.9244049045294 327.12991810410784 632.8446588644163 327.1587944981043 630.7649128243032 327.1876708921008 628.1362107498715 327.32858862845774 625.5075086754398 327.4695063648147 623.0813976905858 327.71672900707443 620.655286705732 327.96395164933415 617.6982997118581 328.45454941972105 614.7413127179842 328.945147190108 612.2772747634714 328.97673675572776 609.8132368089585 329.00832632134757 607.8003297935047 329.3094095021804 605.7874227780509 329.61049268301326 604.31437356632 330.4595882869762 602.841324354589 331.3086838909391 601.1896983194094 331.697268059307 599.53807228423 332.085852227675 598.2773017451298 332.1818753992244 597.0165312060295 332.2778985707738 594.6000676154047 332.69097402804186 592.1836040247797 333.10404948531 590.5834847952556 333.0948655513704 588.9833655657314 333.08568161743074 587.4907600121455 333.05706515191685 585.9981544585595 333.028448686403 582.9806289034946 332.91278396452003 579.9631033484296 332.79711924263705 578.5514001972081 332.5768928376051 577.1396970459865 332.3566664325732 574.6744260519633 332.0660443989052 572.2091550579402 331.77542236523726 570.3514293358462 331.58779843801517 568.4937036137524 331.400174510793 566.741830582941 331.5160288192093 564.9899575521296 331.6318831276255 563.6303982531163 332.0072374373967 562.2708389541029 332.3825917471679 561.1471289096469 333.0112878026999 560.0234188651909 333.63998385823186 558.5628325888479 333.74604857563827 557.1022463125048 333.8521132930446 555.2979226376419 334.4074386837392 553.4935989627792 334.9627640744338 551.459046876925 335.3891811366716 549.4244947910707 335.81559819890947 547.2381036714269 335.8302482679526 545.0517125517829 335.8448983369957 543.7061842791895 335.9132375046901 542.3606560065961 335.98157667238445 540.782317520277 336.5613734151691 539.203979033958 337.14117015795375 537.8301230838206 337.5038830104513 536.456267133683 337.86659586294894 535.0179147414143 337.8119967799075 533.5795623491456 337.757397696866 531.899579423992 337.66580501047815 530.2195964988385 337.57421232409035 528.9418370247214 337.4773717649302 527.6640775506042 337.38053120577 526.2130303407112 337.18373380305843 524.7619831308182 336.98693640034685 523.1897982270589 336.63732351158376 521.6176133232997 336.28771062282067 519.6680349605746 335.7989489540413 517.7184565978495 335.310187285262 515.9989201692674 335.3433678132747 514.2793837406854 335.37654834128745 512.7349603651223 335.5394274245597 511.1905369895592 335.70230650783196 509.44936799857834 336.1986415950551 507.7081990075975 336.69497668227825 505.8451614228509 337.1288281587523 503.98212383810426 337.5626796352263 501.56030425037613 337.8937067654549 499.13848466264795 338.22473389568347 496.8883517152449 338.9427734708004 494.63821876784175 339.6608130459172 492.47068147143085 340.46917362311683 490.30314417501995 341.2775342003165 487.91750183129795 342.47966059933157 485.531859487576 343.68178699834664 484.000182805029 343.62384436410974 482.468506122482 343.56590172987285 481.4217642076744 342.8647949758364 480.3750222928669 342.1636882217999 479.087451183974 342.2685263318134 477.7998800750811 342.37336444182694 476.4607022155479 342.41260074231855 475.1215243560147 342.45183704281015 473.5962664506774 342.5608991192398 472.07100854534 342.6699611956695 470.2924813541105 343.29926595478094 468.513954162881 343.9285707138923 466.4204982545549 344.4271183882341 464.3270423462287 344.92566606257583 462.90575867870064 345.27591886093336 461.4844750111725 345.6261716592909 459.64060105323375 345.680055135759 457.796727095295 345.7339386122271 456.52594212481466 345.72139800298453 455.2551571543343 345.70885739374194 452.97107760115045 345.8327084582228 450.68699804796654 345.9565595227037 449.06558168602845 345.9110642407019 447.44416532409036 345.8655689587001 444.89527718658474 345.2870131828829 442.34638904907916 344.7084574070657 441.0016517408791 344.19421509901895 439.65691443267906 343.6799727909722 438.48850593611036 345.09824041427237 437.32009743954166 346.5165080375726 436.87784139113535 348.3536871629444 436.435585342729 350.1908662883162 435.2775944185137 351.1997053280912 434.11960349429836 352.2085443678662 433.29949953858494 353.5801611892929 432.4793955828715 354.95177801071964 431.3154417754264 356.09293993591814 430.15148796798127 357.2341018611167 428.65263055459815 358.3553694642934 427.153773141215 359.47663706747016 427.046271759813 360.7379058566476 426.938770378411 361.99917464582506 427.55892826584056 363.5741766848019 428.1790861532702 365.14917872377873 427.38546330172437 366.73868941353135 426.5918404501786 368.3282001032839 425.5771926277524 369.3546957304012 424.5625448053263 370.38119135751856 422.8025813470822 371.52475211555594 421.04261788883804 372.6683128735933 419.8761648418522 373.3832343078951 418.7097117948664 374.0981557421969 416.67771821917256 374.9346983753064 414.6457246434788 375.7712410084159 413.0436461140614 376.19725619594294 411.441567584644 376.62327138347 410.10572763558844 376.34872532978557 408.7698876865329 376.0741792761011 407.5073556076156 375.1533713567014 406.24482352869825 374.23256343730174 404.56484189353245 373.32883011438616 402.88486025836664 372.4250967914706 402.6444223769641 370.9524937291785 402.40398449556153 369.4798906668864 400.9683973319523 366.97586509825044 399.5328101683431 364.4718395296145 398.50510551111427 363.09153906370517 397.47740085388546 361.71123859779584 397.32445578287013 360.3833491725819 397.17151071185475 359.055459747368 396.1981117265446 357.2445186321938 395.22471274123444 355.43357751701956 394.2755146107651 354.05134383690904 393.32631648029576 352.6691101567986 392.69014930451567 351.53558649038104 392.0539821287355 350.4020628239635 391.8580952798802 348.909593367683 391.66220843102496 347.4171239114025 389.95955878649033 346.82257091966096 388.25690914195565 346.22801792791944 387.10463200228145 345.65495906474774 385.95235486260725 345.08190020157605 384.72933663997446 344.6579358176799 383.5063184173417 344.2339714337838 381.60545183485596 342.6451797539037 379.70458525237024 341.0563880740236 378.7732339341858 340.18522727122024 377.8418826160014 339.3140664684169 376.64648177881816 338.6768754571249 375.4510809416349 338.0396844458329 374.307295218276 336.78854675244276 373.1635094949171 335.5374090590526 372.41044075796515 334.3045242802301 371.65737202101315 333.07163950140756 371.2576840307876 331.52361598231914 370.857996040562 329.97559246323067 369.7389584480212 328.7490950091888 368.61992085548036 327.52259755514694 367.9472943626538 326.21044432237477 367.2746678698272 324.89829108960265 366.0688033874784 322.8440262514629 364.8629389051296 320.7897614133231 364.37205970344013 319.6388035996824 363.88118050175063 318.48784578604165 363.51798930762305 317.1859295319325 363.1547981134955 315.88401327782344 362.10890092524664 315.0528666110621 361.0630037369978 314.2217199443007 360.28412456400156 313.235346953193 359.50524539100536 312.2489739620854 358.07982276357615 313.6499408610938 356.65440013614693 315.05090776010223 355.4254597139944 316.8971721978826 354.1965192918419 318.7434366356629 353.02148376876164 319.7926928933067 351.84644824568136 320.84194915095054 350.62909815498165 321.62166130707476 349.4117480642819 322.4013734631989 349.22153669060526 323.651327694252 349.03132531692864 324.90128192530517 347.80953529028625 326.6818252481827 346.5877452636439 328.4623685710602 344.99388929853944 329.500603654103 343.400033333435 330.53883873714574 341.630545246592 331.80831243671105 339.86105715974907 333.07778613627636 341.29268146377126 332.19644135901405 342.72430576779345 331.31509658175173 342.53855052088966 332.5580656134606 342.3527952739859 333.8010346451694 341.43459573004395 335.46031002606827 340.51639618610204 337.11958540696713 340.34688724585953 338.6953817695992 340.1773783056171 340.2711781322313 339.33965295882126 341.2147038140081 338.50192761202544 342.1582294957849 335.584183999791 341.37042685491866 332.6664403875566 340.58262421405243 332.6437056601593 340.1736649966964 332.62097093276196 339.7647057793403 332.6967702782698 339.362189980258 332.77256962377766 338.9596741811756 332.9424975806684 338.58699603752177 333.11242553755915 338.214317893868 333.3666058849942 337.8931374768621 333.6207862324292 337.5719570598561 333.94444599667304 337.32094139042505 334.2681057609169 337.069925720994 334.6424338212646 336.90366384163906 335.0167618816123 336.7374019622841 335.4200022736087 336.66555702124515 335.82324266560516 336.5937120802062 336.2319590387213 336.6204597088321 336.64067541183744 336.647207337458 337.0311131512643 336.7709929623162 337.42155089069115 336.8947785871744 337.7710177366687 337.1084077819322 338.12048458264616 337.32203697668996 338.40866950566647 337.6130936025106 338.6968544286867 337.9041502283313 338.90700810748353 338.2557180604469 339.11716178628035 338.6072858925625 339.237070079168 338.9989317920522 339.3569783720556 339.39057769154186 338.5784454791277 338.7666649387156 337.7999125861998 338.1427521858894 338.87912861662875 339.7956435695095 339.9583446470577 341.44853495312964 340.83201607245985 342.364625987951 341.70568749786196 343.28071702277236 342.20973557632453 344.486023026731 342.71378365478705 345.69132903068964 342.706036062432 346.9523903413133 342.698288470077 348.21345165193696 342.6874100544312 349.7489203096221 342.67653163878543 351.2843889673072 342.66590124705334 352.5365900197104 342.65527085532125 353.7887910721135 342.5789172072437 355.1725908573102 342.50256355916616 356.5563906425069 341.95335291912716 358.12638730234426 341.40414227908815 359.6963839621816 339.97737581425815 361.3264658729596 338.55060934942816 362.95654778373756 337.347159527068 363.6065112517475 336.1437097047079 364.2564747197574 334.23850423621013 364.75729045848936 332.33329876771245 365.2581061972213 331.1066003232413 366.9173908834333 329.87990187877017 368.5766755696453 328.63187271733034 368.99508373120244 327.3838435558905 369.41349189275957 326.16316728936755 370.0106702756698 324.9424910228446 370.60784865858005 323.0553578599271 371.41990270312226 321.16822469700963 372.2319567476645 319.6917202526679 373.19303890570734 318.21521580832615 374.15412106375015 316.90838860254064 374.9510748795071 315.6015613967552 375.748028695264 313.88350656989985 376.6609005050017 312.16545174304457 377.5737723147393 310.4318160853445 378.1784003852831 308.69818042764444 378.783028455827 308.1391884523382 380.2456270516857 307.58019647703196 381.7082256475444 307.4613962455394 383.07597633561704 307.3425960140469 384.4437270236897 306.8239494770057 385.65132642939096 306.3053029399645 386.85892583509224 305.5655320279485 387.99378568700797 304.82576111593244 389.12864553892365 303.9999188218817 390.3008785311938 303.174076527831 391.4731115234639 302.2610904943632 392.3408247324777 301.34810446089546 393.2085379414915 300.2216957923005 394.1690604180895 299.0952871237056 395.1295828946875 297.42616782259404 396.6435897705655 295.75704852148243 398.1575966464435 294.4535429587994 399.39249932751113 293.1500373961163 400.6274020085788 291.7802519388212 401.81270058635243 290.4104664815261 402.99799916412604 288.98430533571184 403.6725228843395 287.55814418989763 404.347046604553 286.6092977376219 405.5022400801207 285.66045128534614 406.65743355568844 283.8815292274422 407.37547099203044 282.1026071695382 408.09350842837244 283.10222869448603 407.29288985135065 284.1018502194339 406.4922712743289 283.7393910638293 408.0866683516566 283.3769319082247 409.68106542898437 282.7421535470006 411.8471997322146 282.10737518577645 414.01333403544487 281.35732566548995 416.24005515562396 280.6072761452034 418.46677627580306 280.0758987119923 420.04773077984873 279.5445212787812 421.62868528389447 278.81564008585 423.510394759286 278.08675889291885 425.39210423467756 277.15246206496437 426.64366457123197 276.2181652370099 427.89522490778637 275.4363468605867 428.9267737061388 274.6545284841635 429.95832250449126 273.64736862051404 431.8072615968361 272.6402087568646 433.65620068918093 271.3245165164149 434.86111074738676 270.00882427596525 436.06602080559253 268.9754911333884 437.00511106577255 267.94215799081155 437.94420132595263 267.30523265871 439.1070635888574 266.6683073266085 440.2699258517621 265.4781668891749 441.2508241418932 264.2880264517412 442.23172243202424 263.24681969705887 443.73310489033145 262.2056129423765 445.23448734863865 260.6293781429441 446.05455918375094 259.0531433435118 446.87463101886317 257.2677789850949 447.32688597736944 255.48241462667795 447.7791409358758 254.25212967901632 448.1190518204877 253.0218447313547 448.45896270509957 250.72946908673845 449.52705560564414 248.4370934421222 450.5951485061887 245.4739873281423 451.54969900405234 242.51088121416242 452.504249501916 240.12131961210574 453.22288533146025 237.73175801004905 453.9415211610046 235.05963114868246 454.8990131300694 232.38750428731586 455.8565050991343 228.33477785354097 457.3643885806198 224.2820514197661 458.87227206210525 218.5291161185901 460.9060613031219 212.77618081741412 462.93985054413855 207.55760597262588 464.69921215683087 202.33903112783761 466.45857376952324 199.10383871981364 467.5809469430824 195.86864631178966 468.70332011664146 192.7367975589794 469.8479206223484 189.60494880616912 470.9925211280553 183.81544486321528 472.9017956499211 178.02594092026143 474.8110701717869 174.0996716105554 476.31798801874527 170.17340230084932 477.8249058657036 166.31612953863794 479.0635509377298 162.45885677642656 480.302196009756 158.5833075287038 481.7222040301295 154.70775828098107 483.14221205050296 151.6514017347117 484.19294689295975 148.59504518844233 485.24368173541654 145.85583189543036 486.20516546448675 143.11661860241836 487.166649193557 140.56425719432607 487.85154539937093 138.0118957862338 488.53644160518485 137.8228868166122 488.5600273651723 137.63387784699057 488.58361312515973 137.44471686449054 488.5612792636209 137.25555588199052 488.53894540208205 137.0772369318027 488.47198996409884 136.89891798161486 488.4050345261157 136.7418049695024 488.2973489648897 136.58469195738994 488.1896634036637 136.45791629899878 488.04750640907287 136.3311406406076 487.90534941448203 136.2420705431599 487.7369831577313 136.15300044571225 487.5686169009805 136.10681266745667 487.3838268368227 136.0606248892011 487.19903677266495 136.06000386597998 487.00856290831143 136.05938284275888 486.8180890439579 136.10436466847096 486.6330017293542 136.14934649418308 486.44791441475047 136.23731682300456 486.2789709333176 136.32528715182605 486.1100274518848 136.45113314411253 485.96704680670143 136.57697913639905 485.82406616151815 136.73338661716602 485.7153583944003 136.889794097933 485.6066506272825 137.06767265704946 485.53853383876265 137.24555121616595 485.4704170502429 137.245474565552 485.4704362088571 Z"
    fill="white"></path>
</svg>